# xmcd
# Track frame offsets:
# 225
# 24825
# 63059
# 99164
# 121984
# 144354
# 153569
# 180766
# 196544
# 234024
# 249920
# 260765
# 268836
# 290031
#
# Disc length: 4075 seconds
# Revision: 0
# Processed by: cddbd v1.4PL0 Copyright (c) Steve Scherf et al.
# Submitted via: VisiTrax 2.9.5.181 - For more info visit www.synapsa.com
#
DISCID=ac0fe80e
DTITLE=Rock Bottom - King of the Dues
DYEAR=1999
DGENRE=Blues
TTITLE0=Dues To Pay
TTITLE1=Shake That Thing
TTITLE2=IHOB
TTITLE3=Gonna Rock That Jerk
TTITLE4=Deadest Place In Town
TTITLE5=Stompin The Booge
TTITLE6=Drinkin' Straight Nyquil
TTITLE7=Mr. Big
TTITLE8=R. B.'s Blues
TTITLE9=Ugly Is As Ugly Does
TTITLE10=Hate To See You Go
TTITLE11=Spiders In Her Head
TTITLE12=Manatee Avenue East
TTITLE13=Speedy Done Lost His Mojo Bag
EXTD=Tricknology, CD 002
EXTT0=
EXTT1=
EXTT2=
EXTT3=
EXTT4=
EXTT5=
EXTT6=
EXTT7=
EXTT8=
EXTT9=
EXTT10=
EXTT11=
EXTT12=
EXTT13=
PLAYORDER=
